{"title":"Attack.Of.The.Show.2010.07.27.HDTV.XViD-SRU","uid":5728488,"size":363483467,"categoryP":"other","categoryS":"other","magnet":"?xt=urn:btih:108f35aa206e9618e1b745b90890f7706ab8a87f&amp;dn=Attack.Of.The.Show.2010.07.27.HDTV.XViD-SRU&amp;tr=udp%3A%2F%2Ftracker.openbittorrent.com%3A80&amp;tr=udp%3A%2F%2Fopen.demonii.com%3A1337&amp;tr=udp%3A%2F%2Ftracker.coppersurfer.tk%3A6969&amp;tr=udp%3A%2F%2Fexodus.desync.com%3A6969","seeders":0,"leechers":0,"uploader":"rec0d","files":26,"time":1280554398,"description":"General\nComplete name                    : Attack.Of.The.Show.2010.07.27.HDTV.XViD-SRU.avi\nFormat                           : AVI\nFormat/Info                      : Audio Video Interleave\nFile size                        : 351 MiB\nDuration                         : 42mn 27s\nOverall bit rate                 : 1 156 Kbps\nWriting application              : Lavf51.12.1\nWriting library                  : VirtualDub build 32817/release\n\nVideo\nID                               : 0\nFormat                           : MPEG-4 Visual\nFormat profile                   : Advanced Simple@L5\nFormat settings, BVOP            : Yes\nFormat settings, QPel            : No\nFormat settings, GMC             : No warppoints\nFormat settings, Matrix          : Default (H.263)\nMuxing mode                      : Packed bitstream\nCodec ID                         : XVID\nCodec ID/Hint                    : XviD\nDuration                         : 42mn 27s\nBit rate                         : 1 021 Kbps\nWidth                            : 624 pixels\nHeight                           : 352 pixels\nDisplay aspect ratio             : 16:9\nFrame rate                       : 29.970 fps\nColor space                      : YUV\nChroma subsampling               : 4:2:0\nBit depth                        : 8 bits\nScan type                        : Progressive\nBits/(Pixel*Frame)               : 0.155\nStream size                      : 310 MiB (88%)\nWriting library                  : XviD 1.2.1 (UTC 2008-12-04)\n\nAudio\nID                               : 1\nFormat                           : MPEG Audio\nFormat version                   : Version 1\nFormat profile                   : Layer 3\nMode                             : Joint stereo\nMode extension                   : MS Stereo\nCodec ID                         : 55\nCodec ID/Hint                    : MP3\nDuration                         : 42mn 27s\nBit rate mode                    : Variable\nBit rate                         : 121 Kbps\nChannel(s)                       : 2 channels\nSampling rate                    : 44.1 KHz\nStream size                      : 36.7 MiB (10%)\nAlignment                        : Aligned on interleaves\nInterleave, duration             : 26 ms (0.78 video frame)\nInterleave, preload duration     : 549 ms","torrent":{"xt":"urn:btih:108f35aa206e9618e1b745b90890f7706ab8a87f","amp;dn":"Attack.Of.The.Show.2010.07.27.HDTV.XViD-SRU","amp;tr":["udp%3A%2F%2Ftracker.openbittorrent.com%3A80","udp%3A%2F%2Fopen.demonii.com%3A1337","udp%3A%2F%2Ftracker.coppersurfer.tk%3A6969","udp%3A%2F%2Fexodus.desync.com%3A6969"],"infoHash":"108f35aa206e9618e1b745b90890f7706ab8a87f","infoHashBuffer":{"type":"Buffer","data":[16,143,53,170,32,110,150,24,225,183,69,185,8,144,247,112,106,184,168,127]},"announce":[],"urlList":[]}}